<?xml version="1.0" encoding="UTF-8" standalone="no"?>
<!DOCTYPE svg PUBLIC "-//W3C//DTD SVG 1.1//EN"
 "http://www.w3.org/Graphics/SVG/1.1/DTD/svg11.dtd">
<!-- Generated by graphviz version 2.47.3 (20210619.1520)
 -->
<!-- Pages: 1 -->
<svg width="576pt" height="128pt"
 viewBox="0.00 0.00 576.00 128.25" xmlns="http://www.w3.org/2000/svg" xmlns:xlink="http://www.w3.org/1999/xlink">
<g id="graph0" class="graph" transform="scale(0.71 0.71) rotate(0) translate(4 176.48)">
<polygon fill="white" stroke="transparent" points="-4,4 -4,-176.48 806.6,-176.48 806.6,4 -4,4"/>
<!-- Initial -->
<g id="node1" class="node">
<title>Initial</title>
<ellipse fill="black" stroke="black" cx="1.8" cy="-54.48" rx="1.8" ry="1.8"/>
</g>
<!-- &#45; -->
<g id="node3" class="node">
<title>&#45;</title>
<ellipse fill="none" stroke="black" cx="58.6" cy="-54.48" rx="18" ry="18"/>
<text text-anchor="middle" x="58.6" y="-50.78" font-family="Times New Roman,serif" font-size="14.00">&#45;</text>
</g>
<!-- Initial&#45;&gt;&#45; -->
<g id="edge1" class="edge">
<title>Initial&#45;&gt;&#45;</title>
<path fill="none" stroke="black" d="M3.75,-54.48C7.25,-54.48 19.84,-54.48 31.96,-54.48"/>
<polygon fill="black" stroke="black" points="32.08,-57.46 40.58,-54.48 32.08,-51.51 32.08,-57.46"/>
</g>
<!-- + -->
<g id="node2" class="node">
<title>+</title>
<ellipse fill="none" stroke="black" cx="780.6" cy="-84.48" rx="18" ry="18"/>
<ellipse fill="none" stroke="black" cx="780.6" cy="-84.48" rx="22" ry="22"/>
<text text-anchor="middle" x="780.6" y="-80.78" font-family="Times New Roman,serif" font-size="14.00">+</text>
</g>
<!-- +&#45;&gt;+ -->
<g id="edge18" class="edge">
<title>+&#45;&gt;+</title>
<path fill="none" stroke="black" d="M775.99,-106.29C775.55,-116.04 777.08,-124.48 780.6,-124.48 783.02,-124.48 784.5,-120.49 785.05,-114.83"/>
<polygon fill="black" stroke="black" points="788.02,-114.85 785.21,-106.29 782.07,-114.73 788.02,-114.85"/>
<text text-anchor="middle" x="780.6" y="-128.28" font-family="Times New Roman,serif" font-size="14.00"> a </text>
</g>
<!-- +&#45;&gt;+ -->
<g id="edge19" class="edge">
<title>+&#45;&gt;+</title>
<path fill="none" stroke="black" d="M772.77,-105.3C769.2,-123.37 771.81,-142.48 780.6,-142.48 788.02,-142.48 791.03,-128.87 789.65,-113.77"/>
<polygon fill="black" stroke="black" points="792.59,-113.28 788.43,-105.3 786.7,-114.13 792.59,-113.28"/>
<text text-anchor="middle" x="780.6" y="-146.28" font-family="Times New Roman,serif" font-size="14.00"> b </text>
</g>
<!-- 1 -->
<g id="node4" class="node">
<title>1</title>
<ellipse fill="none" stroke="black" cx="144.6" cy="-27.48" rx="18" ry="18"/>
<text text-anchor="middle" x="144.6" y="-23.78" font-family="Times New Roman,serif" font-size="14.00">1</text>
</g>
<!-- &#45;&#45;&gt;1 -->
<g id="edge7" class="edge">
<title>&#45;&#45;&gt;1</title>
<path fill="none" stroke="black" d="M76.2,-49.15C88.47,-45.2 105.38,-39.77 119.19,-35.33"/>
<polygon fill="black" stroke="black" points="120.14,-38.15 127.32,-32.71 118.32,-32.48 120.14,-38.15"/>
<text text-anchor="middle" x="101.6" y="-46.28" font-family="Times New Roman,serif" font-size="14.00"> a </text>
</g>
<!-- 2 -->
<g id="node5" class="node">
<title>2</title>
<ellipse fill="none" stroke="black" cx="232.6" cy="-51.48" rx="18" ry="18"/>
<text text-anchor="middle" x="232.6" y="-47.78" font-family="Times New Roman,serif" font-size="14.00">2</text>
</g>
<!-- &#45;&#45;&gt;2 -->
<g id="edge2" class="edge">
<title>&#45;&#45;&gt;2</title>
<path fill="none" stroke="#ffff00" stroke-width="2.5" d="M76.23,-58.51C82.01,-59.72 88.56,-60.88 94.6,-61.48 117.37,-63.74 100.08,-73.25 196.6,-60.48 199.84,-60.05 203.21,-59.43 206.52,-58.7"/>
<polygon fill="#ffff00" stroke="#ffff00" stroke-width="2.5" points="207.48,-61.53 215.03,-56.61 206.06,-55.75 207.48,-61.53"/>
<text text-anchor="middle" x="144.6" y="-85.28" font-family="Times New Roman,serif" font-size="14.00"> [1]</text>
<text text-anchor="middle" x="144.6" y="-70.28" font-family="Times New Roman,serif" font-size="14.00">b </text>
</g>
<!-- 1&#45;&gt;2 -->
<g id="edge8" class="edge">
<title>1&#45;&gt;2</title>
<path fill="none" stroke="black" d="M162.18,-32.11C174.79,-35.63 192.35,-40.53 206.66,-44.52"/>
<polygon fill="black" stroke="black" points="206.08,-47.45 215.07,-46.87 207.68,-41.72 206.08,-47.45"/>
<text text-anchor="middle" x="188.6" y="-45.28" font-family="Times New Roman,serif" font-size="14.00"> a </text>
</g>
<!-- 1&#45;&gt;2 -->
<g id="edge9" class="edge">
<title>1&#45;&gt;2</title>
<path fill="none" stroke="black" d="M161.22,-19.91C171.55,-15.98 185.23,-12.87 196.6,-17.48 203.71,-20.37 210.17,-25.47 215.55,-30.85"/>
<polygon fill="black" stroke="black" points="213.41,-32.92 221.34,-37.19 217.8,-28.91 213.41,-32.92"/>
<text text-anchor="middle" x="188.6" y="-21.28" font-family="Times New Roman,serif" font-size="14.00"> b </text>
</g>
<!-- 3 -->
<g id="node6" class="node">
<title>3</title>
<ellipse fill="none" stroke="black" cx="324.6" cy="-28.48" rx="18" ry="18"/>
<text text-anchor="middle" x="324.6" y="-24.78" font-family="Times New Roman,serif" font-size="14.00">3</text>
</g>
<!-- 2&#45;&gt;3 -->
<g id="edge3" class="edge">
<title>2&#45;&gt;3</title>
<path fill="none" stroke="#bfff00" stroke-width="2.5" d="M247.48,-40.95C253.61,-36.89 261.13,-32.7 268.6,-30.48 277.9,-27.72 288.48,-26.84 297.85,-26.77"/>
<polygon fill="#bfff00" stroke="#bfff00" stroke-width="2.5" points="297.84,-29.75 306.4,-26.93 297.95,-23.8 297.84,-29.75"/>
<text text-anchor="middle" x="278.6" y="-49.28" font-family="Times New Roman,serif" font-size="14.00"> [2]</text>
<text text-anchor="middle" x="278.6" y="-34.28" font-family="Times New Roman,serif" font-size="14.00">a </text>
</g>
<!-- 4 -->
<g id="node7" class="node">
<title>4</title>
<ellipse fill="none" stroke="black" cx="504.6" cy="-50.48" rx="18" ry="18"/>
<text text-anchor="middle" x="504.6" y="-46.78" font-family="Times New Roman,serif" font-size="14.00">4</text>
</g>
<!-- 2&#45;&gt;4 -->
<g id="edge10" class="edge">
<title>2&#45;&gt;4</title>
<path fill="none" stroke="black" d="M250.17,-56.65C255.94,-58.21 262.5,-59.71 268.6,-60.48 341.79,-69.74 360.85,-62.65 434.6,-60.48 449.73,-60.04 453.61,-60.62 468.6,-58.48 471.81,-58.02 475.17,-57.42 478.47,-56.75"/>
<polygon fill="black" stroke="black" points="479.31,-59.61 486.97,-54.88 478.03,-53.8 479.31,-59.61"/>
<text text-anchor="middle" x="370.6" y="-67.28" font-family="Times New Roman,serif" font-size="14.00"> b </text>
</g>
<!-- 3&#45;&gt;4 -->
<g id="edge11" class="edge">
<title>3&#45;&gt;4</title>
<path fill="none" stroke="black" d="M342.67,-30.59C374.03,-34.47 441,-42.74 477.89,-47.3"/>
<polygon fill="black" stroke="black" points="477.78,-50.29 486.58,-48.38 478.51,-44.38 477.78,-50.29"/>
<text text-anchor="middle" x="416.6" y="-45.28" font-family="Times New Roman,serif" font-size="14.00"> b </text>
</g>
<!-- 5 -->
<g id="node8" class="node">
<title>5</title>
<ellipse fill="none" stroke="black" cx="416.6" cy="-120.48" rx="18" ry="18"/>
<text text-anchor="middle" x="416.6" y="-116.78" font-family="Times New Roman,serif" font-size="14.00">5</text>
</g>
<!-- 3&#45;&gt;5 -->
<g id="edge4" class="edge">
<title>3&#45;&gt;5</title>
<path fill="none" stroke="#80ff00" stroke-width="2.5" d="M331.29,-45.26C336.86,-59.59 346.57,-79.97 360.6,-93.48 369.18,-101.75 380.79,-107.95 391.13,-112.31"/>
<polygon fill="#80ff00" stroke="#80ff00" stroke-width="2.5" points="390.07,-115.09 399.07,-115.42 392.24,-109.55 390.07,-115.09"/>
<text text-anchor="middle" x="370.6" y="-125.28" font-family="Times New Roman,serif" font-size="14.00"> [3]</text>
<text text-anchor="middle" x="370.6" y="-110.28" font-family="Times New Roman,serif" font-size="14.00">a </text>
</g>
<!-- 4&#45;&gt;3 -->
<g id="edge12" class="edge">
<title>4&#45;&gt;3</title>
<path fill="none" stroke="black" d="M488.92,-41.38C475.39,-33.55 454.46,-22.86 434.6,-18.48 406.22,-12.22 372.85,-17.01 350.58,-21.88"/>
<polygon fill="black" stroke="black" points="349.65,-19.04 342.05,-23.87 351,-24.84 349.65,-19.04"/>
<text text-anchor="middle" x="416.6" y="-22.28" font-family="Times New Roman,serif" font-size="14.00"> a </text>
</g>
<!-- 6 -->
<g id="node9" class="node">
<title>6</title>
<ellipse fill="none" stroke="black" cx="596.6" cy="-50.48" rx="18" ry="18"/>
<text text-anchor="middle" x="596.6" y="-46.78" font-family="Times New Roman,serif" font-size="14.00">6</text>
</g>
<!-- 4&#45;&gt;6 -->
<g id="edge13" class="edge">
<title>4&#45;&gt;6</title>
<path fill="none" stroke="black" d="M522.95,-50.48C536.15,-50.48 554.53,-50.48 569.5,-50.48"/>
<polygon fill="black" stroke="black" points="569.8,-53.46 578.3,-50.48 569.8,-47.51 569.8,-53.46"/>
<text text-anchor="middle" x="550.6" y="-54.28" font-family="Times New Roman,serif" font-size="14.00"> b </text>
</g>
<!-- 5&#45;&gt;4 -->
<g id="edge14" class="edge">
<title>5&#45;&gt;4</title>
<path fill="none" stroke="black" d="M432.4,-111.36C442.87,-104.66 457.04,-95.09 468.6,-85.48 474.49,-80.59 480.52,-74.86 485.88,-69.47"/>
<polygon fill="black" stroke="black" points="488.02,-71.54 491.82,-63.37 483.76,-67.39 488.02,-71.54"/>
<text text-anchor="middle" x="460.6" y="-100.28" font-family="Times New Roman,serif" font-size="14.00"> b </text>
</g>
<!-- 7 -->
<g id="node10" class="node">
<title>7</title>
<ellipse fill="none" stroke="black" cx="684.6" cy="-84.48" rx="18" ry="18"/>
<text text-anchor="middle" x="684.6" y="-80.78" font-family="Times New Roman,serif" font-size="14.00">7</text>
</g>
<!-- 5&#45;&gt;7 -->
<g id="edge5" class="edge">
<title>5&#45;&gt;7</title>
<path fill="none" stroke="#40ff00" stroke-width="2.5" d="M434.62,-119.01C444.54,-118.1 457.29,-116.85 468.6,-115.48 537.2,-107.18 617.74,-94.88 657.99,-88.56"/>
<polygon fill="#40ff00" stroke="#40ff00" stroke-width="2.5" points="658.7,-91.46 666.63,-87.2 657.77,-85.58 658.7,-91.46"/>
<text text-anchor="middle" x="550.6" y="-124.28" font-family="Times New Roman,serif" font-size="14.00"> [4]</text>
<text text-anchor="middle" x="550.6" y="-109.28" font-family="Times New Roman,serif" font-size="14.00">a </text>
</g>
<!-- 6&#45;&gt;3 -->
<g id="edge15" class="edge">
<title>6&#45;&gt;3</title>
<path fill="none" stroke="black" d="M580.06,-42.79C556.6,-31.66 510.44,-11.63 468.6,-4.48 421.16,3.62 407.14,-0.21 360.6,-12.48 356.72,-13.51 352.73,-14.93 348.89,-16.51"/>
<polygon fill="black" stroke="black" points="347.39,-13.93 340.86,-20.13 349.83,-19.35 347.39,-13.93"/>
<text text-anchor="middle" x="460.6" y="-8.28" font-family="Times New Roman,serif" font-size="14.00"> a </text>
</g>
<!-- 6&#45;&gt;7 -->
<g id="edge16" class="edge">
<title>6&#45;&gt;7</title>
<path fill="none" stroke="black" d="M613.78,-56.88C626.63,-61.96 644.81,-69.14 659.39,-74.91"/>
<polygon fill="black" stroke="black" points="658.5,-77.76 667.5,-78.12 660.69,-72.22 658.5,-77.76"/>
<text text-anchor="middle" x="640.6" y="-74.28" font-family="Times New Roman,serif" font-size="14.00"> b </text>
</g>
<!-- 7&#45;&gt;+ -->
<g id="edge6" class="edge">
<title>7&#45;&gt;+</title>
<path fill="none" stroke="#00ff00" stroke-width="2.5" d="M702.84,-84.48C715.96,-84.48 734.32,-84.48 749.8,-84.48"/>
<polygon fill="#00ff00" stroke="#00ff00" stroke-width="2.5" points="750.02,-87.46 758.52,-84.48 750.02,-81.51 750.02,-87.46"/>
<text text-anchor="middle" x="730.6" y="-103.28" font-family="Times New Roman,serif" font-size="14.00"> [5]</text>
<text text-anchor="middle" x="730.6" y="-88.28" font-family="Times New Roman,serif" font-size="14.00">a </text>
</g>
<!-- 7&#45;&gt;+ -->
<g id="edge17" class="edge">
<title>7&#45;&gt;+</title>
<path fill="none" stroke="black" d="M699.91,-74.62C706,-70.99 713.36,-67.32 720.6,-65.48 731.55,-62.7 743.43,-65.4 753.65,-69.54"/>
<polygon fill="black" stroke="black" points="752.47,-72.27 761.43,-73.1 754.94,-66.86 752.47,-72.27"/>
<text text-anchor="middle" x="730.6" y="-69.28" font-family="Times New Roman,serif" font-size="14.00"> b </text>
</g>
</g>
</svg>
