<?xml version="1.0" encoding="UTF-8" standalone="no"?>
<!DOCTYPE svg PUBLIC "-//W3C//DTD SVG 1.1//EN"
 "http://www.w3.org/Graphics/SVG/1.1/DTD/svg11.dtd">
<!-- Generated by graphviz version 2.47.3 (20210619.1520)
 -->
<!-- Pages: 1 -->
<svg width="576pt" height="132pt"
 viewBox="0.00 0.00 576.00 131.72" xmlns="http://www.w3.org/2000/svg" xmlns:xlink="http://www.w3.org/1999/xlink">
<g id="graph0" class="graph" transform="scale(0.73 0.73) rotate(0) translate(4 177.25)">
<polygon fill="white" stroke="transparent" points="-4,4 -4,-177.25 788.6,-177.25 788.6,4 -4,4"/>
<!-- Initial -->
<g id="node1" class="node">
<title>Initial</title>
<ellipse fill="black" stroke="black" cx="1.8" cy="-55.25" rx="1.8" ry="1.8"/>
</g>
<!-- &#45; -->
<g id="node3" class="node">
<title>&#45;</title>
<ellipse fill="none" stroke="black" cx="58.6" cy="-55.25" rx="18" ry="18"/>
<text text-anchor="middle" x="58.6" y="-51.55" font-family="Times New Roman,serif" font-size="14.00">&#45;</text>
</g>
<!-- Initial&#45;&gt;&#45; -->
<g id="edge1" class="edge">
<title>Initial&#45;&gt;&#45;</title>
<path fill="none" stroke="black" d="M3.75,-55.25C7.25,-55.25 19.84,-55.25 31.96,-55.25"/>
<polygon fill="black" stroke="black" points="32.08,-58.22 40.58,-55.25 32.08,-52.27 32.08,-58.22"/>
</g>
<!-- + -->
<g id="node2" class="node">
<title>+</title>
<ellipse fill="none" stroke="black" cx="762.6" cy="-85.25" rx="18" ry="18"/>
<ellipse fill="none" stroke="black" cx="762.6" cy="-85.25" rx="22" ry="22"/>
<text text-anchor="middle" x="762.6" y="-81.55" font-family="Times New Roman,serif" font-size="14.00">+</text>
</g>
<!-- +&#45;&gt;+ -->
<g id="edge18" class="edge">
<title>+&#45;&gt;+</title>
<path fill="none" stroke="black" d="M758.17,-107.05C757.75,-116.81 759.22,-125.25 762.6,-125.25 764.92,-125.25 766.34,-121.26 766.87,-115.6"/>
<polygon fill="black" stroke="black" points="769.84,-115.61 767.03,-107.05 763.9,-115.5 769.84,-115.61"/>
<text text-anchor="middle" x="762.6" y="-129.05" font-family="Times New Roman,serif" font-size="14.00"> a </text>
</g>
<!-- +&#45;&gt;+ -->
<g id="edge19" class="edge">
<title>+&#45;&gt;+</title>
<path fill="none" stroke="black" d="M755.09,-106.06C751.66,-124.13 754.16,-143.25 762.6,-143.25 769.72,-143.25 772.61,-129.64 771.29,-114.53"/>
<polygon fill="black" stroke="black" points="774.23,-114.07 770.11,-106.06 768.33,-114.89 774.23,-114.07"/>
<text text-anchor="middle" x="762.6" y="-147.05" font-family="Times New Roman,serif" font-size="14.00"> b </text>
</g>
<!-- 1 -->
<g id="node4" class="node">
<title>1</title>
<ellipse fill="none" stroke="black" cx="144.6" cy="-28.25" rx="18" ry="18"/>
<text text-anchor="middle" x="144.6" y="-24.55" font-family="Times New Roman,serif" font-size="14.00">1</text>
</g>
<!-- &#45;&#45;&gt;1 -->
<g id="edge2" class="edge">
<title>&#45;&#45;&gt;1</title>
<path fill="none" stroke="black" d="M76.2,-49.91C88.47,-45.97 105.38,-40.53 119.19,-36.09"/>
<polygon fill="black" stroke="black" points="120.14,-38.91 127.32,-33.48 118.32,-33.25 120.14,-38.91"/>
<text text-anchor="middle" x="101.6" y="-47.05" font-family="Times New Roman,serif" font-size="14.00"> a </text>
</g>
<!-- 2 -->
<g id="node5" class="node">
<title>2</title>
<ellipse fill="none" stroke="black" cx="232.6" cy="-52.25" rx="18" ry="18"/>
<text text-anchor="middle" x="232.6" y="-48.55" font-family="Times New Roman,serif" font-size="14.00">2</text>
</g>
<!-- &#45;&#45;&gt;2 -->
<g id="edge3" class="edge">
<title>&#45;&#45;&gt;2</title>
<path fill="none" stroke="black" d="M76.23,-59.27C82.01,-60.48 88.56,-61.65 94.6,-62.25 117.37,-64.5 100.08,-74.02 196.6,-61.25 199.84,-60.82 203.21,-60.19 206.52,-59.47"/>
<polygon fill="black" stroke="black" points="207.48,-62.29 215.03,-57.38 206.06,-56.52 207.48,-62.29"/>
<text text-anchor="middle" x="144.6" y="-71.05" font-family="Times New Roman,serif" font-size="14.00"> b </text>
</g>
<!-- 1&#45;&gt;2 -->
<g id="edge4" class="edge">
<title>1&#45;&gt;2</title>
<path fill="none" stroke="black" d="M162.18,-32.88C174.79,-36.4 192.35,-41.3 206.66,-45.29"/>
<polygon fill="black" stroke="black" points="206.08,-48.22 215.07,-47.64 207.68,-42.48 206.08,-48.22"/>
<text text-anchor="middle" x="188.6" y="-46.05" font-family="Times New Roman,serif" font-size="14.00"> a </text>
</g>
<!-- 1&#45;&gt;2 -->
<g id="edge5" class="edge">
<title>1&#45;&gt;2</title>
<path fill="none" stroke="black" d="M161.22,-20.68C171.55,-16.75 185.23,-13.63 196.6,-18.25 203.71,-21.13 210.17,-26.23 215.55,-31.62"/>
<polygon fill="black" stroke="black" points="213.41,-33.69 221.34,-37.95 217.8,-29.67 213.41,-33.69"/>
<text text-anchor="middle" x="188.6" y="-22.05" font-family="Times New Roman,serif" font-size="14.00"> b </text>
</g>
<!-- 3 -->
<g id="node6" class="node">
<title>3</title>
<ellipse fill="none" stroke="black" cx="318.6" cy="-29.25" rx="18" ry="18"/>
<text text-anchor="middle" x="318.6" y="-25.55" font-family="Times New Roman,serif" font-size="14.00">3</text>
</g>
<!-- 2&#45;&gt;3 -->
<g id="edge6" class="edge">
<title>2&#45;&gt;3</title>
<path fill="none" stroke="black" d="M250.2,-47.7C262.28,-44.4 278.85,-39.86 292.54,-36.11"/>
<polygon fill="black" stroke="black" points="293.63,-38.9 301.04,-33.78 292.05,-33.16 293.63,-38.9"/>
<text text-anchor="middle" x="275.6" y="-45.05" font-family="Times New Roman,serif" font-size="14.00"> a </text>
</g>
<!-- 4 -->
<g id="node7" class="node">
<title>4</title>
<ellipse fill="none" stroke="black" cx="494.6" cy="-51.25" rx="18" ry="18"/>
<text text-anchor="middle" x="494.6" y="-47.55" font-family="Times New Roman,serif" font-size="14.00">4</text>
</g>
<!-- 2&#45;&gt;4 -->
<g id="edge7" class="edge">
<title>2&#45;&gt;4</title>
<path fill="none" stroke="black" d="M250.21,-56.82C255.98,-58.2 262.53,-59.54 268.6,-60.25 337.46,-68.31 355.3,-63.28 424.6,-61.25 439.73,-60.8 443.61,-61.39 458.6,-59.25 461.81,-58.79 465.17,-58.19 468.47,-57.52"/>
<polygon fill="black" stroke="black" points="469.31,-60.38 476.97,-55.64 468.03,-54.57 469.31,-60.38"/>
<text text-anchor="middle" x="362.6" y="-68.05" font-family="Times New Roman,serif" font-size="14.00"> b </text>
</g>
<!-- 3&#45;&gt;4 -->
<g id="edge9" class="edge">
<title>3&#45;&gt;4</title>
<path fill="none" stroke="black" d="M336.6,-31.4C367.27,-35.28 431.99,-43.46 468.03,-48.01"/>
<polygon fill="black" stroke="black" points="467.72,-50.98 476.53,-49.09 468.47,-45.07 467.72,-50.98"/>
<text text-anchor="middle" x="406.6" y="-46.05" font-family="Times New Roman,serif" font-size="14.00"> b </text>
</g>
<!-- 5 -->
<g id="node8" class="node">
<title>5</title>
<ellipse fill="none" stroke="black" cx="406.6" cy="-121.25" rx="18" ry="18"/>
<text text-anchor="middle" x="406.6" y="-117.55" font-family="Times New Roman,serif" font-size="14.00">5</text>
</g>
<!-- 3&#45;&gt;5 -->
<g id="edge8" class="edge">
<title>3&#45;&gt;5</title>
<path fill="none" stroke="black" d="M325.39,-45.92C331.03,-60.18 340.78,-80.52 354.6,-94.25 362.19,-101.78 372.31,-107.73 381.54,-112.1"/>
<polygon fill="black" stroke="black" points="380.36,-114.83 389.34,-115.54 382.76,-109.38 380.36,-114.83"/>
<text text-anchor="middle" x="362.6" y="-109.05" font-family="Times New Roman,serif" font-size="14.00"> a </text>
</g>
<!-- 4&#45;&gt;3 -->
<g id="edge10" class="edge">
<title>4&#45;&gt;3</title>
<path fill="none" stroke="black" d="M478.96,-41.86C465.46,-33.79 444.54,-22.77 424.6,-18.25 397.7,-12.15 366.14,-17.02 344.69,-22.07"/>
<polygon fill="black" stroke="black" points="343.68,-19.26 336.17,-24.22 345.13,-25.03 343.68,-19.26"/>
<text text-anchor="middle" x="406.6" y="-22.05" font-family="Times New Roman,serif" font-size="14.00"> a </text>
</g>
<!-- 6 -->
<g id="node9" class="node">
<title>6</title>
<ellipse fill="none" stroke="black" cx="582.6" cy="-51.25" rx="18" ry="18"/>
<text text-anchor="middle" x="582.6" y="-47.55" font-family="Times New Roman,serif" font-size="14.00">6</text>
</g>
<!-- 4&#45;&gt;6 -->
<g id="edge11" class="edge">
<title>4&#45;&gt;6</title>
<path fill="none" stroke="black" d="M513,-51.25C525.32,-51.25 542.05,-51.25 555.9,-51.25"/>
<polygon fill="black" stroke="black" points="556.02,-54.22 564.52,-51.25 556.02,-48.27 556.02,-54.22"/>
<text text-anchor="middle" x="538.6" y="-55.05" font-family="Times New Roman,serif" font-size="14.00"> b </text>
</g>
<!-- 5&#45;&gt;4 -->
<g id="edge13" class="edge">
<title>5&#45;&gt;4</title>
<path fill="none" stroke="black" d="M422.4,-112.12C432.87,-105.42 447.04,-95.86 458.6,-86.25 464.49,-81.35 470.52,-75.62 475.88,-70.24"/>
<polygon fill="black" stroke="black" points="478.02,-72.3 481.82,-64.14 473.76,-68.15 478.02,-72.3"/>
<text text-anchor="middle" x="450.6" y="-101.05" font-family="Times New Roman,serif" font-size="14.00"> b </text>
</g>
<!-- 7 -->
<g id="node10" class="node">
<title>7</title>
<ellipse fill="none" stroke="black" cx="670.6" cy="-85.25" rx="18" ry="18"/>
<text text-anchor="middle" x="670.6" y="-81.55" font-family="Times New Roman,serif" font-size="14.00">7</text>
</g>
<!-- 5&#45;&gt;7 -->
<g id="edge12" class="edge">
<title>5&#45;&gt;7</title>
<path fill="none" stroke="black" d="M424.62,-119.79C434.55,-118.88 447.3,-117.63 458.6,-116.25 525.77,-108.03 604.57,-95.74 644.17,-89.39"/>
<polygon fill="black" stroke="black" points="644.76,-92.31 652.68,-88.02 643.82,-86.43 644.76,-92.31"/>
<text text-anchor="middle" x="538.6" y="-110.05" font-family="Times New Roman,serif" font-size="14.00"> a </text>
</g>
<!-- 6&#45;&gt;3 -->
<g id="edge14" class="edge">
<title>6&#45;&gt;3</title>
<path fill="none" stroke="black" d="M566.22,-43.2C543.46,-31.79 499.1,-11.51 458.6,-4.25 412.93,3.94 399.37,-1.08 354.6,-13.25 350.72,-14.3 346.74,-15.74 342.91,-17.33"/>
<polygon fill="black" stroke="black" points="341.4,-14.75 334.87,-20.95 343.84,-20.17 341.4,-14.75"/>
<text text-anchor="middle" x="450.6" y="-8.05" font-family="Times New Roman,serif" font-size="14.00"> a </text>
</g>
<!-- 6&#45;&gt;7 -->
<g id="edge15" class="edge">
<title>6&#45;&gt;7</title>
<path fill="none" stroke="black" d="M599.78,-57.64C612.63,-62.72 630.81,-69.91 645.39,-75.68"/>
<polygon fill="black" stroke="black" points="644.5,-78.52 653.5,-78.88 646.69,-72.99 644.5,-78.52"/>
<text text-anchor="middle" x="626.6" y="-75.05" font-family="Times New Roman,serif" font-size="14.00"> b </text>
</g>
<!-- 7&#45;&gt;+ -->
<g id="edge16" class="edge">
<title>7&#45;&gt;+</title>
<path fill="none" stroke="black" d="M688.95,-85.25C701.14,-85.25 717.73,-85.25 731.99,-85.25"/>
<polygon fill="black" stroke="black" points="732,-88.22 740.5,-85.25 732,-82.27 732,-88.22"/>
<text text-anchor="middle" x="714.6" y="-89.05" font-family="Times New Roman,serif" font-size="14.00"> a </text>
</g>
<!-- 7&#45;&gt;+ -->
<g id="edge17" class="edge">
<title>7&#45;&gt;+</title>
<path fill="none" stroke="black" d="M685.91,-75.38C692,-71.75 699.36,-68.09 706.6,-66.25 716.2,-63.81 726.5,-66.02 735.57,-69.69"/>
<polygon fill="black" stroke="black" points="734.54,-72.48 743.5,-73.36 737.04,-67.09 734.54,-72.48"/>
<text text-anchor="middle" x="714.6" y="-70.05" font-family="Times New Roman,serif" font-size="14.00"> b </text>
</g>
</g>
</svg>
